<svg aria-hidden="true" style="position: absolute; width: 0; height: 0; overflow: hidden;" version="1.1" xmlns="http://www.w3.org/2000/svg" xmlns:xlink="http://www.w3.org/1999/xlink">
<defs>
<symbol id="office" viewBox="0 0 32 32">
<path d="M0 32h16v-32h-16v32zM10 4h4v4h-4v-4zM10 12h4v4h-4v-4zM10 20h4v4h-4v-4zM2 4h4v4h-4v-4zM2 12h4v4h-4v-4zM2 20h4v4h-4v-4zM18 10h14v2h-14zM18 32h4v-8h6v8h4v-18h-14z"></path>
</symbol>
<symbol id="logo" viewBox="0 0 48 32">
<path d="M30.544 12.987l0.787 1.816c0.145 0.335 0.546 0.493 0.895 0.354 0.35-0.138 0.516-0.521 0.371-0.856l-0.787-1.815-1.266 0.501z"></path>
<path d="M31.069 14.197v0z"></path>
<path d="M28.884 9.155v0z"></path>
<path d="M29.859 5.475c0 0.965-0.818 1.747-1.826 1.747-1.009 0-1.827-0.782-1.827-1.747s0.818-1.746 1.827-1.746c1.008 0 1.826 0.782 1.826 1.746z"></path>
<path d="M28.945 5.475c0 0.483-0.409 0.874-0.913 0.874s-0.914-0.391-0.914-0.874c0-0.482 0.41-0.873 0.914-0.873s0.913 0.391 0.913 0.873z"></path>
<path d="M26.751 6.72l-2.499 5.766-0.626 2.588 0.422 0.167 1.471-2.254 0.35-0.807c-0.273-0.631 0.040-1.354 0.699-1.614l1.449-3.346c-0.493-0.004-0.939-0.194-1.265-0.501z"></path>
<path d="M29.313 6.719c-0.327 0.307-0.773 0.498-1.266 0.501l2.149 4.959 1.265-0.501-2.149-4.96z"></path>
<path d="M28.717 2.855v-1.965c-0-0.362-0.308-0.655-0.685-0.655-0.378 0-0.685 0.293-0.685 0.655l0 1.965h1.37z"></path>
<path d="M28.032 3.729c0.117 0 0.231 0.011 0.342 0.031v-0.905h-0.685v0.905c0.111-0.020 0.225-0.031 0.343-0.031z"></path>
<path d="M18.52 15.963h-2.279v-15.729h2.279c0.504 0 0.911 0.391 0.911 0.874v13.982h-0c-0 0.483-0.408 0.873-0.912 0.873z"></path>
<path d="M18.407 1.545c0.189 0 0.342-0.147 0.342-0.328s-0.153-0.328-0.342-0.328c-0.189 0-0.342 0.147-0.342 0.328s0.153 0.328 0.342 0.328z"></path>
<path d="M21.027 9.52c0 0.18 0.153 0.328 0.342 0.328s0.342-0.147 0.342-0.328c0 0.18 0.153 0.328 0.342 0.328s0.342-0.147 0.342-0.328c0 0.18-0.153 0.328-0.342 0.328s-0.342-0.147-0.342-0.328c0 0.18-0.153 0.328-0.342 0.328s-0.342-0.147-0.342-0.328z"></path>
<path d="M21.483 0.234c-0.251 0-0.456 0.196-0.456 0.437v-0 9.175l0.684 2.621 0.684-2.621v-9.175c0-0.241-0.204-0.437-0.456-0.437l-0.456-0z"></path>
<path d="M44.647 19.326h-42.186v7.663h42.186v-7.663z"></path>
</symbol>
</defs>
</svg>
